<?xml version="1.0" standalone="no"?><!DOCTYPE svg PUBLIC "-//W3C//DTD SVG 1.1//EN" "http://www.w3.org/Graphics/SVG/1.1/DTD/svg11.dtd"><svg t="1566201661020" class="icon" viewBox="0 0 1024 1024" version="1.1" xmlns="http://www.w3.org/2000/svg" p-id="10621" xmlns:xlink="http://www.w3.org/1999/xlink" width="128" height="128"><defs><style type="text/css"></style></defs><path d="M490.057143 7.314286c14.628571-7.314286 29.257143-7.314286 43.885714 0l424.228572 234.057143c14.628571 7.314286 21.942857 21.942857 21.942857 29.257142v475.428572c0 14.628571-7.314286 21.942857-21.942857 29.257143l-424.228572 234.057143c-14.628571 7.314286-29.257143 7.314286-36.571428 0L73.142857 782.628571c-14.628571-7.314286-21.942857-21.942857-21.942857-29.257142V277.942857c0-14.628571 7.314286-21.942857 21.942857-29.257143L490.057143 7.314286z m7.314286 65.828571l-365.714286 204.8c-7.314286 7.314286-14.628571 14.628571-14.628572 29.257143v409.6c0 7.314286 7.314286 21.942857 14.628572 29.257143l365.714286 204.8c7.314286 7.314286 21.942857 7.314286 36.571428 0l365.714286-204.8c7.314286-7.314286 14.628571-14.628571 14.628571-29.257143V307.2c0-14.628571-7.314286-21.942857-14.628571-29.257143L526.628571 73.142857c-7.314286-7.314286-21.942857-7.314286-29.257142 0z m65.828571 797.257143V541.257143c0-14.628571-7.314286-21.942857-21.942857-29.257143l-365.714286-204.8 307.2-175.542857c14.628571-7.314286 29.257143-7.314286 36.571429 0l314.514285 175.542857c14.628571 7.314286 14.628571 21.942857 21.942858 29.257143v343.771428c0 14.628571-7.314286 29.257143-21.942858 29.257143l-270.628571 160.914286z m-58.514286 14.628571L182.857143 716.8c-7.314286-7.314286-14.628571-21.942857-14.628572-29.257143V365.714286l314.514286 190.171428c7.314286 7.314286 21.942857 21.942857 21.942857 29.257143v299.885714z" p-id="10622"></path></svg>