<?xml version="1.0" standalone="no"?><!DOCTYPE svg PUBLIC "-//W3C//DTD SVG 1.1//EN" "http://www.w3.org/Graphics/SVG/1.1/DTD/svg11.dtd"><svg t="1566201403419" class="icon" viewBox="0 0 1024 1024" version="1.1" xmlns="http://www.w3.org/2000/svg" p-id="5213" xmlns:xlink="http://www.w3.org/1999/xlink" width="128" height="128"><defs><style type="text/css"></style></defs><path d="M930.313924 749.985837v-261.044794A52.167523 52.167523 0 0 0 878.43645 437.105005h-322.783959V273.931291a106.282523 106.282523 0 0 0 93.686076-105.370938V106.075345A106.241088 106.241088 0 0 0 543.221786 0H480.653907a106.241088 106.241088 0 0 0-105.992474 106.075345v62.485008A106.282523 106.282523 0 0 0 468.223202 273.931291v163.173714H141.378546A47.775341 47.775341 0 0 0 93.686076 484.797475v265.188362A106.282523 106.282523 0 0 0 0 855.439647v62.443572a106.241088 106.241088 0 0 0 106.075345 106.116781h62.485008a106.241088 106.241088 0 0 0 106.075345-106.116781v-62.443572A106.241088 106.241088 0 0 0 180.991057 749.985837v-202.703354a22.872496 22.872496 0 0 1 22.831061-22.872496H468.223202V749.985837a106.282523 106.282523 0 0 0-93.686076 105.370939v62.443572A106.241088 106.241088 0 0 0 480.653907 1024h62.567879a106.241088 106.241088 0 0 0 106.116781-106.116781v-62.443572A106.282523 106.282523 0 0 0 555.652491 749.985837v-225.57585h264.525391a22.872496 22.872496 0 0 1 22.831061 22.872496V749.985837a106.241088 106.241088 0 0 0-93.644641 105.370939v62.443572a106.199652 106.199652 0 0 0 106.075345 106.116781h62.443572a106.241088 106.241088 0 0 0 106.116781-106.116781v-62.360701A106.282523 106.282523 0 0 0 930.313924 749.985837z" p-id="5214"></path></svg>