<?xml version="1.0" standalone="no"?><!DOCTYPE svg PUBLIC "-//W3C//DTD SVG 1.1//EN" "http://www.w3.org/Graphics/SVG/1.1/DTD/svg11.dtd"><svg t="1559713865027" class="icon" style="" viewBox="0 0 1024 1024" version="1.1" xmlns="http://www.w3.org/2000/svg" p-id="6111" xmlns:xlink="http://www.w3.org/1999/xlink" width="128" height="128"><defs><style type="text/css"></style></defs><path d="M400.29 521.31h27.928c18.618-32.583 46.546-60.51 79.127-79.128-32.581 4.654-69.818 9.309-102.4 9.309-158.254 0-288.581-55.855-321.163-130.327-4.655 13.963-9.31 23.272-9.31 37.236-4.654 88.436 144.292 162.91 325.819 162.91z" p-id="6112"></path><path d="M386.327 628.364c4.655-27.928 13.964-51.2 23.273-74.473h-4.655c-158.254 0-288.581-55.855-321.163-130.327-4.655 13.963-9.31 23.272-9.31 37.236-4.654 93.09 134.983 162.91 311.855 167.564z m269.964-237.382h13.964c18.618 0 37.236 0 55.854 4.654 4.655-13.963 9.31-23.272 9.31-37.236 0-13.964-4.655-23.273-9.31-37.236-13.964 23.272-37.236 51.2-69.818 69.818z m-256 488.727c-158.255 0-288.582-55.854-321.164-130.327-4.654 13.963-9.309 23.273-9.309 37.236 0 93.091 148.946 162.91 330.473 162.91 55.854 0 107.054-4.655 148.945-18.619-32.581-13.964-60.509-32.582-83.781-60.509-18.619 9.31-41.891 9.31-65.164 9.31z" p-id="6113"></path><path d="M400.29 847.127h37.237c-13.963-23.272-27.927-46.545-37.236-69.818-158.255 0-288.582-55.854-321.164-130.327-4.654 13.963-9.309 23.273-9.309 37.236 0 88.437 148.946 162.91 330.473 162.91zM390.982 740.073c-4.655-18.618-4.655-41.891-4.655-60.51v-9.308C237.382 665.6 111.71 614.4 83.782 544.582c-4.655 13.963-9.31 23.273-9.31 37.236-4.654 79.127 139.637 153.6 316.51 158.255z m293.236-335.128c-148.945 0-269.963 121.019-269.963 269.964 0 148.946 121.018 269.964 269.963 269.964 148.946 0 269.964-121.018 269.964-269.964 0-148.945-121.018-269.964-269.964-269.964z m97.746 265.31v37.236h-83.782v51.2h83.782v37.236h-83.782v69.818h-46.546v-74.472h-83.781v-37.237h83.781v-51.2h-83.781V665.6h69.818l-88.437-162.91h51.2l60.51 125.674c4.654 9.309 9.309 13.963 9.309 27.927l13.963-27.927 60.51-125.673h46.545L702.836 665.6h79.128zM400.29 400.29c181.527 0 330.473-74.473 330.473-162.91 0-93.09-148.946-162.908-330.473-162.908-181.527 0-330.473 74.472-330.473 162.909S218.764 400.29 400.291 400.29z m-69.818-288.582l46.545 93.091c4.655 4.655 4.655 13.964 9.31 18.618 0-4.654 4.654-13.963 9.308-18.618l46.546-93.09h37.236l-65.163 121.017h51.2v27.928h-60.51v37.236h60.51v27.927h-60.51v51.2h-32.581v-51.2H307.2v-27.927h65.164v-37.236H307.2v-27.928h51.2L293.236 111.71h37.237z" p-id="6114"></path></svg>