<?xml version="1.0" standalone="no"?><!DOCTYPE svg PUBLIC "-//W3C//DTD SVG 1.1//EN" "http://www.w3.org/Graphics/SVG/1.1/DTD/svg11.dtd"><svg t="1569399339459" class="icon" viewBox="0 0 1024 1024" version="1.1" xmlns="http://www.w3.org/2000/svg" p-id="9049" xmlns:xlink="http://www.w3.org/1999/xlink" width="128" height="128"><defs><style type="text/css"></style></defs><path d="M0 695.301C0 743.5 39 782.5 87.199 782.5h130.703v134.4c0 24.199 19.598 43.6 43.598 43.6 12.199 0 23.301-5 31.102-13.1L457.5 782.5h479.402c48.098 0 87.098-39 87.098-87.199V150.65c0-48.15-39-87.15-87.098-87.15H87.199C39 63.5 0 102.5 0 150.65v544.651z m261.5-250.5c0-30.102 24.402-54.5 54.402-54.5 30.098 0 54.5 24.398 54.5 54.5 0 30-24.402 54.449-54.5 54.449-30 0-54.402-24.449-54.402-54.449z m196 0c0-30.102 24.402-54.5 54.5-54.5 30.102 0 54.5 24.398 54.5 54.5 0 30-24.398 54.449-54.5 54.449-30.098 0-54.5-24.449-54.5-54.449z m196.102 0c0-30.102 24.398-54.5 54.5-54.5 30.098 0 54.5 24.398 54.5 54.5 0 30-24.402 54.449-54.5 54.449-30.102 0-54.5-24.449-54.5-54.449z" p-id="9050"></path></svg>