<?xml version="1.0" standalone="no"?><!DOCTYPE svg PUBLIC "-//W3C//DTD SVG 1.1//EN" "http://www.w3.org/Graphics/SVG/1.1/DTD/svg11.dtd"><svg t="1559703827213" class="icon" style="" viewBox="0 0 1026 1024" version="1.1" xmlns="http://www.w3.org/2000/svg" p-id="1731" xmlns:xlink="http://www.w3.org/1999/xlink" width="128.25" height="128"><defs><style type="text/css"></style></defs><path d="M1025.025023 794.853147v-90.021978s-60.355644-10.22977-60.355644-15.344656-5.114885-10.22977-5.114885-15.344655c5.114885-15.344655 39.896104-39.896104 39.896103-39.896104l-70.585414-90.021978s-45.010989 34.781219-55.240759 39.896104c-5.114885 0-10.22977-5.114885-15.344656-5.114885s-20.45954-60.355644-20.45954-60.355644h-90.021978s-10.22977 55.240759-25.574426 60.355644c-5.114885 0-10.22977 5.114885-15.344655 5.114885-10.22977-5.114885-55.240759-39.896104-55.240759-39.896104l-70.585415 90.021978s34.781219 34.781219 34.781219 45.010989c0 5.114885-5.114885 5.114885-5.114885 10.22977-15.344655 5.114885-55.240759 15.344655-55.24076 15.344656v90.021978s50.125874 10.22977 60.355645 20.45954c0 5.114885 5.114885 10.22977 5.114885 15.344656-10.22977 15.344655-39.896104 34.781219-39.896104 34.781218l70.585415 90.021978s55.240759-34.781219 65.470529-39.896103c5.114885 0 10.22977 5.114885 15.344655 5.114885 10.22977 5.114885 15.344655 55.240759 15.344656 55.240759h90.021978s5.114885-50.125874 10.22977-55.240759 15.344655-5.114885 20.45954-5.114885c10.22977 5.114885 45.010989 39.896104 45.010989 39.896103l90.021978-90.021978s-34.781219-25.574426-45.010989-34.781218c5.114885-5.114885 5.114885-10.22977 5.114886-15.344656 6.137862-10.22977 61.378621-20.45954 61.378621-20.45954z m-231.192807 65.470529c-65.470529 0-115.596404-50.125874-115.596404-115.596403s50.125874-115.596404 115.596404-115.596404 115.596404 50.125874 115.596403 115.596404-55.240759 115.596404-115.596403 115.596403z" fill="" p-id="1732"></path><path d="M502.283764 723.244755c0-145.262737 120.711289-265.974026 265.974026-265.974026 15.344655 0 34.781219 0 50.125874 5.114885v-231.192807c0-25.574426-20.45954-39.896104-39.896104-39.896104h-165.722277v-125.826174c0-34.781219-5.114885-65.470529-39.896104-65.470529h-421.466534c-34.781219 0-65.470529 29.666334-65.470529 65.470529V737.566434h-65.47053c-10.22977 0-20.45954 10.22977-20.45954 20.45954v84.907093c0 10.22977 10.22977 20.45954 20.45954 20.45954h521.718282c-24.551449-38.873127-39.896104-84.907093-39.896104-140.147852z m150.377623-340.651348c0-10.22977 10.22977-20.45954 20.45954-20.459541h39.896104c10.22977 0 20.45954 10.22977 20.45954 20.459541v39.896103c0 10.22977-10.22977 20.45954-20.45954 20.459541h-39.896104c-10.22977 0-20.45954-10.22977-20.45954-20.459541v-39.896103z m-276.203797-191.296704c0-25.574426 20.45954-39.896104 39.896104-39.896104h39.896104c25.574426 0 39.896104 20.45954 39.896104 39.896104v39.896104c0 25.574426-20.45954 39.896104-39.896104 39.896104h-39.896104c-25.574426 0-39.896104-20.45954-39.896104-39.896104v-39.896104z m0 210.733267c0-25.574426 20.45954-39.896104 39.896104-39.896104h39.896104c25.574426 0 39.896104 20.45954 39.896104 39.896104v39.896104c0 25.574426-20.45954 39.896104-39.896104 39.896104h-39.896104c-25.574426 0-39.896104-20.45954-39.896104-39.896104v-39.896104z m-59.332667 251.652348c0 25.574426-20.45954 39.896104-39.896104 39.896104h-39.896104c-25.574426 0-39.896104-20.45954-39.896104-39.896104v-39.896104c0-25.574426 20.45954-39.896104 39.896104-39.896104h39.896104c25.574426 0 39.896104 20.45954 39.896104 39.896104v39.896104z m0-205.618382c0 25.574426-20.45954 39.896104-39.896104 39.896104h-39.896104c-25.574426 0-39.896104-20.45954-39.896104-39.896104v-39.896104c0-25.574426 20.45954-39.896104 39.896104-39.896104h39.896104c25.574426 0 39.896104 20.45954 39.896104 39.896104v39.896104z m0-210.733267c0 25.574426-20.45954 39.896104-39.896104 39.896104h-39.896104c-25.574426 0-39.896104-20.45954-39.896104-39.896104v-39.896104c0-25.574426 20.45954-39.896104 39.896104-39.896103h39.896104c25.574426 0 39.896104 20.45954 39.896104 39.896103v39.896104z m145.262737 461.362638h-39.896104c-25.574426 0-39.896104-20.45954-39.896103-39.896104v-39.896104c0-25.574426 20.45954-39.896104 39.896103-39.896104h39.896104c25.574426 0 39.896104 20.45954 39.896104 39.896104v39.896104c0 19.436563-15.344655 39.896104-39.896104 39.896104z" fill="" p-id="1733"></path></svg>