<?xml version="1.0" standalone="no"?><!DOCTYPE svg PUBLIC "-//W3C//DTD SVG 1.1//EN" "http://www.w3.org/Graphics/SVG/1.1/DTD/svg11.dtd"><svg t="1559713646926" class="icon" style="" viewBox="0 0 1024 1024" version="1.1" xmlns="http://www.w3.org/2000/svg" p-id="4558" xmlns:xlink="http://www.w3.org/1999/xlink" width="128" height="128"><defs><style type="text/css"></style></defs><path d="M709.27328 992c-161.28 0-292.032-132.544-292.032-296.064s130.752-296.064 292.032-296.064c161.28 0 292.032 132.544 292.032 296.064S870.55328 992 709.27328 992z m107.2-326.944c10.624 0 19.2-8.704 19.2-19.456a19.328 19.328 0 0 0-19.2-19.456h-53.376l41.696-79.52-30.432-19.84-52.576 99.36h-25.024l-52.576-99.392-30.88 19.456 41.728 79.52h-52.992c-10.56 0-19.2 8.704-19.2 19.456 0 10.752 8.64 19.456 19.2 19.456h89.28v58.368h-89.28c-10.56 0-19.2 8.704-19.2 19.456 0 10.752 8.64 19.456 19.2 19.456h89.28v103.2h35.872v-102.784h89.28c10.624 0 19.2-8.704 19.2-19.456a19.328 19.328 0 0 0-19.2-19.456h-89.28v-58.368h89.28zM473.11328 992H55.99328A57.152 57.152 0 0 1 0.02528 933.216V786.88c-1.632-95.168 73.024-173.664 166.88-175.52h176.032c-31.808 141.664 18.688 289.344 130.176 380.64z m-97.6-469.056c-136.192-23.936-227.488-155.264-203.872-293.376 23.616-138.08 153.152-230.624 289.376-206.72 136.224 23.968 227.52 155.328 203.872 293.408a256.832 256.832 0 0 1-0.256 1.568c-124.032 15.36-232.416 92.256-289.12 205.12z" p-id="4559"></path></svg>