<?xml version="1.0" standalone="no"?><!DOCTYPE svg PUBLIC "-//W3C//DTD SVG 1.1//EN" "http://www.w3.org/Graphics/SVG/1.1/DTD/svg11.dtd"><svg t="1562060474973" class="icon" viewBox="0 0 1024 1024" version="1.1" xmlns="http://www.w3.org/2000/svg" p-id="2660" xmlns:xlink="http://www.w3.org/1999/xlink" width="128" height="128"><defs><style type="text/css"></style></defs><path d="M650 452.5H374c-30.8 0-55.8-25-55.8-55.8V120.8c0-30.8 25-55.8 55.8-55.8h276c30.8 0 55.8 25 55.8 55.8v275.9c-0.1 30.8-25.1 55.8-55.8 55.8zM402.4 959h-276c-30.8 0-55.8-25-55.8-55.8V627.3c0-30.8 25-55.8 55.8-55.8h275.9c30.8 0 55.8 25 55.8 55.8v275.9c0 30.8-25 55.8-55.7 55.8zM897.6 959h-276c-30.8 0-55.8-25-55.8-55.8V627.3c0-30.8 25-55.8 55.8-55.8h275.9c30.8 0 55.8 25 55.8 55.8v275.9c0.1 30.8-25 55.8-55.7 55.8z" fill="" p-id="2661"></path><path d="M480 420.5h64v87.4h-64z" fill="" p-id="2662"></path><path d="M791.6 606.1h-64v-61.3H296.4v61.3h-64v-88.5c0-20.3 16.5-36.8 36.8-36.8h485.6c20.3 0 36.8 16.5 36.8 36.8v88.5z" fill="" p-id="2663"></path></svg>