<?xml version="1.0" standalone="no"?><!DOCTYPE svg PUBLIC "-//W3C//DTD SVG 1.1//EN" "http://www.w3.org/Graphics/SVG/1.1/DTD/svg11.dtd"><svg t="1561623700220" class="icon" viewBox="0 0 1024 1024" version="1.1" xmlns="http://www.w3.org/2000/svg" p-id="1152" xmlns:xlink="http://www.w3.org/1999/xlink" width="128" height="128"><defs><style type="text/css"></style></defs><path d="M796.4 195h-99c-22.8-81.2-97.6-140.8-185.6-140.8-88.4 0-163 60-185.6 140.8h-99c-47.6 0-86.4 38.6-86.4 86.4v594.8c0 47.6 38.6 86.4 86.4 86.4h569.2c47.6 0 86.4-38.6 86.4-86.4V281.4c0-47.8-38.6-86.4-86.4-86.4zM511.8 118.4c52.4 0 97.6 31.8 117.8 76.6H394.4c19.8-45.2 65-76.6 117.4-76.6z m250 364.8L473.2 771.8c-1.4 1-2.6 2.2-4 3.2-12 10.4-30 10.2-41.6-1.4l-154.6-160.8c-12-12-12-31 0-43s31-12 43 0l133.6 139L718.4 440c12-12 31.4-12 43.4 0 11.8 12.2 11.8 31.4 0 43.2z" p-id="1153"></path></svg>