<?xml version="1.0" standalone="no"?><!DOCTYPE svg PUBLIC "-//W3C//DTD SVG 1.1//EN" "http://www.w3.org/Graphics/SVG/1.1/DTD/svg11.dtd"><svg class="icon" width="128px" height="123.19px" viewBox="0 0 1064 1024" version="1.1" xmlns="http://www.w3.org/2000/svg"><path fill="#ffffff" d="M743.95733333 473.8688a279.168 279.168 0 0 1 93.504 16.128V98.816C837.46133333 61.8752 808.35413333 32 772.52693333 32H134.35733333C98.49173333 32 69.46133333 61.952 69.46133333 98.8544v787.8912c0 36.9792 29.1072 66.8544 64.9344 66.8544h386.1504a299.2896 299.2896 0 0 1-63.168-184.7808c0-162.816 128.2944-294.912 286.5792-294.912zM176.02133333 250.3424c0-23.5392 18.5472-42.5472 41.3184-42.5472H681.17333333c22.848 0 41.3184 19.0848 41.3184 42.5472 0 23.5392-18.5472 42.5472-41.3184 42.5472H217.30133333c-22.7712 0-41.3184-19.008-41.3184-42.5472z m0 209.1648c0-23.5392 18.5472-42.5472 41.3184-42.5472h271.2576c22.8864 0 41.3184 19.0848 41.3184 42.5472 0 23.5392-18.5472 42.5472-41.3184 42.5472H217.33973333c-22.7712 0-41.3184-19.008-41.3184-42.5472z m248.832 209.1648c0 23.5776-18.5472 42.5472-41.3568 42.5472H217.33973333c-22.848 0-41.3184-19.0848-41.3184-42.5472 0-23.5392 18.5472-42.5472 41.3184-42.5472h166.1568c22.8096 0 41.3568 19.1232 41.3568 42.5472z"  /><path fill="#ffffff" d="M777.728 531.2a230.4 230.4 0 1 0 0 460.8 230.4 230.4 0 0 0 0-460.8z m141.5808 250.4448c0 14.4384-11.6736 26.112-26.112 26.112h-123.1104a26.0352 26.0352 0 0 1-26.112-26.112v-168.8832a26.0352 26.0352 0 1 1 52.224 0v142.848h96.9216c14.4384 0 26.1888 11.712 26.1888 26.0352z"  /></svg>