<?xml version="1.0" standalone="no"?><!DOCTYPE svg PUBLIC "-//W3C//DTD SVG 1.1//EN" "http://www.w3.org/Graphics/SVG/1.1/DTD/svg11.dtd"><svg t="1559703798012" class="icon" style="" viewBox="0 0 1398 1024" version="1.1" xmlns="http://www.w3.org/2000/svg" p-id="1607" xmlns:xlink="http://www.w3.org/1999/xlink" width="174.75" height="128"><defs><style type="text/css"></style></defs><path d="M993.792 826.368h-28.672V411.136c0-25.088-20.48-45.568-45.568-45.568h-203.776V92.16c0-25.088-20.48-45.568-45.568-45.568h-450.56c-25.088 0-45.568 20.48-45.568 45.568v734.208h-10.24c-25.088 0-45.568 20.48-45.568 45.568V931.84c0 25.088 20.48 45.568 45.568 45.568h830.464c25.088 0 45.568-20.48 45.568-45.568v-59.904c-0.512-25.088-20.992-45.568-46.08-45.568z m-408.576-166.4c0 25.088-20.48 45.568-45.568 45.568H349.696c-25.088 0-45.568-20.48-45.568-45.568v-13.824c0-25.088 20.48-45.568 45.568-45.568h189.952c25.088 0 45.568 20.48 45.568 45.568v13.824z m0-198.656c0 25.088-20.48 45.568-45.568 45.568H349.696c-25.088 0-45.568-20.48-45.568-45.568v-13.824c0-25.088 20.48-45.568 45.568-45.568h189.952c25.088 0 45.568 20.48 45.568 45.568v13.824z m0-214.016c0 25.088-20.48 45.568-45.568 45.568H349.696c-25.088 0-45.568-20.48-45.568-45.568v-13.824c0-25.088 20.48-45.568 45.568-45.568h189.952c25.088 0 45.568 20.48 45.568 45.568v13.824z m290.304 494.08h-121.344c-20.992 0-37.888-16.896-37.888-37.888 0-20.992 16.896-37.888 37.888-37.888H875.52c20.992 0 37.888 16.896 37.888 37.888 0 20.992-16.896 37.888-37.888 37.888z m0-153.6h-121.344c-20.992 0-37.888-16.896-37.888-37.888 0-20.992 16.896-37.888 37.888-37.888H875.52c20.992 0 37.888 16.896 37.888 37.888 0 20.992-16.896 37.888-37.888 37.888zM1178.624 306.688c-66.56-20.992-104.96-34.816-104.96-87.552s41.984-87.552 104.96-87.552c66.56 0 104.96 45.568 104.96 87.552 0 10.24 7.168 17.408 17.408 17.408s17.408-7.168 17.408-17.408c0-55.296-45.568-113.664-122.368-121.344v-18.432c0-10.24-7.168-17.408-17.408-17.408s-17.408 7.168-17.408 17.408v18.432C1087.488 103.936 1039.36 151.04 1039.36 219.136c0 80.384 66.56 101.376 129.024 122.368 69.632 20.992 115.2 41.984 115.2 104.96 0 66.56-38.4 104.96-104.96 104.96-34.816 0-104.96-20.992-104.96-104.96 0-10.24-7.168-17.408-17.408-17.408s-17.408 7.168-17.408 17.408c0 83.456 58.88 131.072 122.368 138.752v18.432c0 10.24 7.168 17.408 17.408 17.408s17.408-7.168 17.408-17.408v-18.432c74.24-7.168 122.368-60.928 122.368-138.752 0-94.72-76.8-118.784-139.776-139.776z" p-id="1608"></path></svg>